Coordinates
version=1
nRows=16
nColumns=42
inDegrees=yes

Units are S.I. units (second, meters, Newtons, ...)
If the header above contains a line with 'inDegrees', this indicates whether rotational values are in degrees (yes) or radians (no).

endheader
time	pelvis_tilt	pelvis_list	pelvis_rotation	pelvis_tx	pelvis_ty	pelvis_tz	hip_flexion_r	hip_adduction_r	hip_rotation_r	knee_angle_r	knee_angle_r_beta	ankle_angle_r	subtalar_angle_r	mtp_angle_r	hip_flexion_l	hip_adduction_l	hip_rotation_l	knee_angle_l	knee_angle_l_beta	ankle_angle_l	subtalar_angle_l	mtp_angle_l	lumbar_extension	lumbar_bending	lumbar_rotation	sh_tx_r	sh_ty_r	sh_tz_r	sh_plane_elev_r	sh_elev_r	sh_axial_rot_r	elbow_flex_r	pro_sup_r	sh_tx_l	sh_ty_l	sh_tz_l	sh_plane_elev_l	sh_elev_l	sh_axial_rot_l	elbow_flex_l	pro_sup_l
      3.51666670	     -4.01763549	      1.07813793	      0.03674436	      0.26129051	      0.93554523	     -0.06554865	      1.09045291	     -8.03379032	    -16.52562863	      0.52378488	      0.00914177	     -4.08411073	    -17.12236156	     -7.49999987	      2.42397423	     -3.98972725	     -6.75703528	      0.34745760	      0.00606428	      6.20043952	      0.29998457	     -7.49999987	     -1.36474147	     -2.53124384	    -11.05215467	      0.01616840	     -0.01748492	     -0.00385877	      8.66965638	      6.39474811	      3.52146677	     24.03924197	     84.10138185	      0.00559269	     -0.01290382	     -0.00259356	     33.29888472	     50.12186114	    -49.82519300	     20.80995731	      5.16734209
      3.53333330	     -3.87879356	      1.05836646	      0.09116090	      0.26121430	      0.93601296	     -0.06583906	      0.94610535	     -8.01384712	    -16.66193756	      0.53354829	      0.00931217	     -3.92758318	    -17.00926518	     -7.49999987	      2.27999797	     -4.00895625	     -6.65217151	      0.33830221	      0.00590449	      6.17785980	      0.22158977	     -7.49999987	     -1.49540549	     -2.49107229	    -10.83243850	      0.01549125	     -0.01750500	     -0.00380832	      9.12227142	      6.45928299	      3.73940065	     24.24324479	     83.22098349	      0.00656234	     -0.01307762	     -0.00266828	     33.00445126	     49.20239177	    -50.14510570	     22.19782920	      6.27203340
      3.55000000	     -3.89064824	      1.06175995	      0.07356104	      0.26118003	      0.93597911	     -0.06552042	      0.98063816	     -8.01781653	    -16.50972248	      0.54223250	      0.00946374	     -4.03647678	    -17.45163875	     -7.49999987	      2.28232997	     -4.00845712	     -6.59677469	      0.34143470	      0.00595916	      6.18702484	      0.16976904	     -7.49999987	     -1.37809388	     -2.54336785	    -11.03781497	      0.01725131	     -0.01755562	     -0.00387573	      9.86824791	      6.44221568	      4.01909932	     24.05899522	     82.88332079	      0.00676171	     -0.01317504	     -0.00266220	     32.13640752	     48.16385028	    -51.46193811	     23.92130560	      5.53927555
      3.56666670	     -3.77290686	      1.06638319	      0.05885379	      0.26118427	      0.93635365	     -0.06575128	      0.85924306	     -8.01158094	    -16.58569660	      0.50783608	      0.00886341	     -3.92714300	    -17.25692423	     -7.49999987	      2.14234922	     -4.02567140	     -6.77052886	      0.34456967	      0.00601388	      6.04150680	     -0.05056190	     -7.49999987	     -1.36322210	     -2.59096423	    -10.85086352	      0.01773788	     -0.01756794	     -0.00387260	     10.22921083	      6.38611023	      3.97893120	     23.79887966	     82.04103598	      0.00801698	     -0.01326203	     -0.00270333	     31.90342544	     47.18672487	    -51.76584821	     24.69347704	      7.04034573
      3.58333330	     -3.83228045	      1.11130336	      0.02070096	      0.26111173	      0.93620199	     -0.06534169	      0.96207443	     -8.04688958	    -16.60651203	      0.51267201	      0.00894781	     -3.99320562	    -17.44685295	     -7.49999987	      2.18132461	     -4.00745284	     -6.79405348	      0.35309541	      0.00616268	      5.79223192	     -0.53759287	     -7.49999987	     -1.16980863	     -2.60742377	    -10.83532723	      0.01834729	     -0.01758246	     -0.00397099	     10.54989081	      6.34942918	      3.43140376	     23.57006456	     82.77524447	      0.00771312	     -0.01326366	     -0.00278057	     31.34888504	     45.83205401	    -51.59579099	     25.58859281	      5.88765349
      3.60000000	     -3.86889376	      1.15556461	      0.03960598	      0.26126685	      0.93639109	     -0.06552820	      0.99943243	     -8.08763070	    -16.77912907	      0.50405078	      0.00879735	     -3.87473619	    -17.19798465	     -7.49999987	      2.20357015	     -3.98018147	     -6.89797731	      0.35439044	      0.00618528	      5.64845247	     -0.68369008	     -7.49999987	     -0.97246620	     -2.57452096	    -10.68760264	      0.01906309	     -0.01759733	     -0.00415101	     10.03434085	      6.28529992	      3.78942196	     23.41113218	     82.10525607	      0.00760919	     -0.01307230	     -0.00285984	     31.01140995	     44.25309730	    -50.86375452	     26.17068811	      6.51143443
      3.61666670	     -3.92334881	      1.20012816	      0.04723125	      0.26126455	      0.93620293	     -0.06516213	      1.06853402	     -8.12145840	    -16.73537012	      0.49905191	      0.00871010	     -4.05027526	    -17.50920001	     -7.49999987	      2.26342779	     -3.95929300	     -7.01501916	      0.36048307	      0.00629162	      5.52502698	     -0.84470926	     -7.49999987	     -0.87594929	     -2.56176935	    -11.26801844	      0.02015625	     -0.01757607	     -0.00416799	     11.86613782	      6.47334816	      2.55387262	     23.19923670	     84.91273655	      0.00514758	     -0.01288244	     -0.00295668	     29.88948751	     42.96696916	    -50.44701897	     26.87998481	      6.55254880
      3.63333330	     -3.97804212	      1.21950923	      0.05523809	      0.26138437	      0.93629902	     -0.06539831	      1.13570038	     -8.14693253	    -16.81803795	      0.49796422	      0.00869112	     -4.05580684	    -17.45615283	     -7.49999987	      2.32937145	     -3.93683746	     -7.12888888	      0.35687175	      0.00622859	      5.52716894	     -0.78729865	     -7.49999987	     -0.79409268	     -2.55011592	    -11.18472208	      0.02012143	     -0.01756999	     -0.00422647	     11.91596147	      6.51951499	      2.78942937	     23.15683024	     84.14286202	      0.00480933	     -0.01282249	     -0.00299351	     29.72254382	     41.99570705	    -50.68450657	     27.34608619	      6.89983170
      3.65000000	     -4.05250629	      1.23461869	      0.10752193	      0.26138619	      0.93612258	     -0.06513054	      1.19517334	     -8.14994286	    -16.82848085	      0.46859606	      0.00817854	     -4.04008109	    -17.52968895	     -7.49999987	      2.43747651	     -3.90944678	     -7.03522022	      0.35010679	      0.00611052	      5.44427159	     -1.00454410	     -7.49999987	     -0.64337173	     -2.54441634	    -11.27007346	      0.02066309	     -0.01754788	     -0.00428444	     11.31346633	      6.42972158	      3.04607001	     23.16395956	     83.59978848	      0.00444517	     -0.01249895	     -0.00309387	     29.21223106	     41.16737581	    -50.22934208	     27.83895704	      7.51790515
      3.66666670	     -4.05168359	      1.27365686	      0.07835032	      0.26144372	      0.93628772	     -0.06531641	      1.21043676	     -8.20809156	    -16.90930351	      0.46926300	      0.00819018	     -4.01904027	    -17.42580252	     -7.49999987	      2.43632285	     -3.84879062	     -7.27222503	      0.34973707	      0.00610406	      5.52199589	     -0.68623817	     -7.49999987	     -0.63612838	     -2.59306835	    -11.00054437	      0.01999870	     -0.01749305	     -0.00433485	     11.46197830	      6.51214798	      2.82183625	     23.10069027	     85.37833402	      0.00452447	     -0.01268363	     -0.00314710	     29.47621769	     40.73086997	    -49.87524385	     27.77128165	      7.23418052
      3.68333330	     -4.16097523	      1.28885412	      0.12338368	      0.26141110	      0.93595246	     -0.06507545	      1.29931712	     -8.20723497	    -17.00511135	      0.47314139	      0.00825788	     -3.95832744	    -17.36819581	     -7.49999987	      2.55901616	     -3.82955783	     -7.18692302	      0.35192254	      0.00614221	      5.42971708	     -0.88703498	     -7.49999987	     -0.41473009	     -2.64433060	    -11.17543073	      0.02063183	     -0.01746842	     -0.00434953	     11.57256511	      6.40068892	      2.61329207	     22.87775168	     84.18501388	      0.00419324	     -0.01272012	     -0.00317495	     29.08986842	     40.06393325	    -50.57590097	     28.07392231	      9.02158572
      3.70000000	     -4.06758137	      1.31959654	      0.10854032	      0.26138193	      0.93622441	     -0.06531495	      1.20472008	     -8.22011186	    -17.04565044	      0.45543480	      0.00794884	     -3.89829454	    -17.29659876	     -7.49999987	      2.45278851	     -3.78970745	     -7.26972010	      0.34661547	      0.00604958	      5.43693985	     -0.71084509	     -7.49999987	     -0.53032153	     -2.66812660	    -11.01030570	      0.02060502	     -0.01741805	     -0.00436640	     11.11324911	      6.41692702	      2.73037085	     23.03194527	     86.17443925	      0.00487316	     -0.01279291	     -0.00324653	     28.81700970	     39.42816778	    -49.48296632	     28.57351732	      7.95529150
      3.71666670	     -3.85660345	      1.35197039	      0.13134798	      0.26138466	      0.93946755	     -0.06543021	      0.93550333	     -8.25872029	    -17.59514246	      0.41137765	      0.00717989	     -3.28564943	    -15.97839687	     -7.49999987	      2.22512277	     -3.72126714	     -7.14256458	      0.33324003	      0.00581614	      5.38794791	     -0.62605909	     -7.49999987	     -0.82598690	     -2.82697507	    -10.30612074	      0.01843001	     -0.01751845	     -0.00425951	     12.35183128	      6.50304899	      2.81985225	     22.81847579	     83.13767789	      0.00898273	     -0.01287958	     -0.00321289	     28.90078653	     38.35034943	    -50.43741455	     29.62580454	     14.99325731
      3.73333330	     -3.97324820	      1.39531588	      0.04643772	      0.26127816	      0.93919307	     -0.06550715	      1.10112683	     -8.30602017	    -17.02062349	      0.40412067	      0.00705324	     -3.89332020	    -17.19606009	     -7.49999987	      2.35851616	     -3.65542294	     -7.31890272	      0.33067995	      0.00577145	      5.42839196	     -0.34966778	     -7.49999987	     -0.62789800	     -2.84933396	    -10.80715969	      0.02194011	     -0.01750897	     -0.00436515	     11.72345995	      6.10241290	      2.44724157	     22.86839108	     84.50782431	      0.00675552	     -0.01391292	     -0.00323769	     28.68441556	     37.96519730	    -49.51355216	     28.60218038	      8.63647432
      3.75000000	     -3.83895416	      1.42632775	      0.04716476	      0.26109962	      0.93897607	     -0.06520053	      0.94009041	     -8.34188646	    -17.24365911	      0.37366069	      0.00652161	     -3.74250852	    -16.68783446	     -7.49999987	      2.22105854	     -3.58943606	     -7.25100408	      0.32232585	      0.00562565	      5.41202016	     -0.32877790	     -7.49999987	     -0.74417336	     -2.94043971	    -10.44889033	      0.02212967	     -0.01754684	     -0.00438427	     12.20614078	      5.98677194	      2.42975950	     22.65807160	     83.30873215	      0.00920352	     -0.01430118	     -0.00329268	     28.77519294	     37.02908509	    -49.69216463	     28.85259310	     10.98660463
      3.76666670	     -3.81017368	      1.47749608	      0.09249612	      0.26095299	      0.93882086	     -0.06547765	      0.89083244	     -8.39673539	    -17.30043462	      0.35769702	      0.00624299	     -3.66434083	    -16.51463833	     -7.49999987	      2.20786627	     -3.51129467	     -7.19015608	      0.31817905	      0.00555327	      5.45579463	     -0.19192025	     -7.49999987	     -0.73786398	     -2.97536763	    -10.32285755	      0.02262086	     -0.01753788	     -0.00438682	     12.41654977	      5.88897202	      2.26283888	     22.43295942	     82.47382366	      0.00995221	     -0.01450332	     -0.00337945	     28.91324735	     35.92941488	    -49.86885208	     29.00093489	     12.41583592
